<?xml version="1.0" encoding="UTF-8"?>
    <svg width="800" height="1800" version="1.1" xmlns="http://www.w3.org/2000/svg">
    <style>
        .row { font: 14px Arial; fill: #64748b; }
        .score { font: bold 14px Arial; fill: #64748b; }
    </style>
    <text x="400" y="40" text-anchor="middle" font-size="20px" font-weight="bold" fill="#64748b">Channel Performance Overview</text><rect x="150" y="80" width="500" height="30" fill="#eee" rx="5"/><rect x="150" y="80" width="388.6" height="30" fill="#22c55e" rx="5"/>
        <text x="140" y="100" text-anchor="end" class="row">configs.txt</text>
        <text x="660" y="100" text-anchor="start" class="score">77.7% (S:100%)</text><rect x="150" y="130" width="500" height="30" fill="#eee" rx="5"/><rect x="150" y="130" width="387.25" height="30" fill="#22c55e" rx="5"/>
        <text x="140" y="150" text-anchor="end" class="row">wireguard_configs.txt</text>
        <text x="660" y="150" text-anchor="start" class="score">77.5% (S:100%)</text><rect x="150" y="180" width="500" height="30" fill="#eee" rx="5"/><rect x="150" y="180" width="378.25" height="30" fill="#22c55e" rx="5"/>
        <text x="140" y="200" text-anchor="end" class="row">sub_1.txt</text>
        <text x="660" y="200" text-anchor="start" class="score">75.7% (S:100%)</text><rect x="150" y="230" width="500" height="30" fill="#eee" rx="5"/><rect x="150" y="230" width="378.65000000000003" height="30" fill="#22c55e" rx="5"/>
        <text x="140" y="250" text-anchor="end" class="row">sub_2.txt</text>
        <text x="660" y="250" text-anchor="start" class="score">75.7% (S:100%)</text><rect x="150" y="280" width="500" height="30" fill="#eee" rx="5"/><rect x="150" y="280" width="378.1" height="30" fill="#22c55e" rx="5"/>
        <text x="140" y="300" text-anchor="end" class="row">sub_3.txt</text>
        <text x="660" y="300" text-anchor="start" class="score">75.6% (S:100%)</text><rect x="150" y="330" width="500" height="30" fill="#eee" rx="5"/><rect x="150" y="330" width="377.04999999999995" height="30" fill="#22c55e" rx="5"/>
        <text x="140" y="350" text-anchor="end" class="row">sub_4.txt</text>
        <text x="660" y="350" text-anchor="start" class="score">75.4% (S:100%)</text><rect x="150" y="380" width="500" height="30" fill="#eee" rx="5"/><rect x="150" y="380" width="351.95" height="30" fill="#22c55e" rx="5"/>
        <text x="140" y="400" text-anchor="end" class="row">sub_1.txt</text>
        <text x="660" y="400" text-anchor="start" class="score">70.4% (S:100%)</text><rect x="150" y="430" width="500" height="30" fill="#eee" rx="5"/><rect x="150" y="430" width="356.8" height="30" fill="#22c55e" rx="5"/>
        <text x="140" y="450" text-anchor="end" class="row">sub_2.txt</text>
        <text x="660" y="450" text-anchor="start" class="score">71.4% (S:100%)</text><rect x="150" y="480" width="500" height="30" fill="#eee" rx="5"/><rect x="150" y="480" width="336.85" height="30" fill="#eab308" rx="5"/>
        <text x="140" y="500" text-anchor="end" class="row">sub_3.txt</text>
        <text x="660" y="500" text-anchor="start" class="score">67.4% (S:100%)</text><rect x="150" y="530" width="500" height="30" fill="#eee" rx="5"/><rect x="150" y="530" width="373.84999999999997" height="30" fill="#22c55e" rx="5"/>
        <text x="140" y="550" text-anchor="end" class="row">sub_4.txt</text>
        <text x="660" y="550" text-anchor="start" class="score">74.8% (S:100%)</text><rect x="150" y="580" width="500" height="30" fill="#eee" rx="5"/><rect x="150" y="580" width="374.6" height="30" fill="#22c55e" rx="5"/>
        <text x="140" y="600" text-anchor="end" class="row">mixed</text>
        <text x="660" y="600" text-anchor="start" class="score">74.9% (S:100%)</text><rect x="150" y="630" width="500" height="30" fill="#eee" rx="5"/><rect x="150" y="630" width="75.0" height="30" fill="#ef4444" rx="5"/>
        <text x="140" y="650" text-anchor="end" class="row">ahwazigamingshop</text>
        <text x="660" y="650" text-anchor="start" class="score">15.0% (S:0%)</text><rect x="150" y="680" width="500" height="30" fill="#eee" rx="5"/><rect x="150" y="680" width="377.40000000000003" height="30" fill="#22c55e" rx="5"/>
        <text x="140" y="700" text-anchor="end" class="row">ar14n24b</text>
        <text x="660" y="700" text-anchor="start" class="score">75.5% (S:100%)</text><rect x="150" y="730" width="500" height="30" fill="#eee" rx="5"/><rect x="150" y="730" width="75.0" height="30" fill="#ef4444" rx="5"/>
        <text x="140" y="750" text-anchor="end" class="row">betv2ray</text>
        <text x="660" y="750" text-anchor="start" class="score">15.0% (S:0%)</text><rect x="150" y="780" width="500" height="30" fill="#eee" rx="5"/><rect x="150" y="780" width="415.25" height="30" fill="#22c55e" rx="5"/>
        <text x="140" y="800" text-anchor="end" class="row">bugfreenet</text>
        <text x="660" y="800" text-anchor="start" class="score">83.0% (S:100%)</text><rect x="150" y="830" width="500" height="30" fill="#eee" rx="5"/><rect x="150" y="830" width="415.34999999999997" height="30" fill="#22c55e" rx="5"/>
        <text x="140" y="850" text-anchor="end" class="row">capoit</text>
        <text x="660" y="850" text-anchor="start" class="score">83.1% (S:100%)</text><rect x="150" y="880" width="500" height="30" fill="#eee" rx="5"/><rect x="150" y="880" width="75.0" height="30" fill="#ef4444" rx="5"/>
        <text x="140" y="900" text-anchor="end" class="row">canfing_vpn</text>
        <text x="660" y="900" text-anchor="start" class="score">15.0% (S:0%)</text><rect x="150" y="930" width="500" height="30" fill="#eee" rx="5"/><rect x="150" y="930" width="75.0" height="30" fill="#ef4444" rx="5"/>
        <text x="140" y="950" text-anchor="end" class="row">configfa</text>
        <text x="660" y="950" text-anchor="start" class="score">15.0% (S:0%)</text><rect x="150" y="980" width="500" height="30" fill="#eee" rx="5"/><rect x="150" y="980" width="386.55" height="30" fill="#22c55e" rx="5"/>
        <text x="140" y="1000" text-anchor="end" class="row">configshubplus</text>
        <text x="660" y="1000" text-anchor="start" class="score">77.3% (S:100%)</text><rect x="150" y="1030" width="500" height="30" fill="#eee" rx="5"/><rect x="150" y="1030" width="432.70000000000005" height="30" fill="#22c55e" rx="5"/>
        <text x="140" y="1050" text-anchor="end" class="row">configx2ray</text>
        <text x="660" y="1050" text-anchor="start" class="score">86.5% (S:100%)</text><rect x="150" y="1080" width="500" height="30" fill="#eee" rx="5"/><rect x="150" y="1080" width="75.0" height="30" fill="#ef4444" rx="5"/>
        <text x="140" y="1100" text-anchor="end" class="row">crypto_trad26</text>
        <text x="660" y="1100" text-anchor="start" class="score">15.0% (S:0%)</text><rect x="150" y="1130" width="500" height="30" fill="#eee" rx="5"/><rect x="150" y="1130" width="75.0" height="30" fill="#ef4444" rx="5"/>
        <text x="140" y="1150" text-anchor="end" class="row">express_freevpn</text>
        <text x="660" y="1150" text-anchor="start" class="score">15.0% (S:0%)</text><rect x="150" y="1180" width="500" height="30" fill="#eee" rx="5"/><rect x="150" y="1180" width="75.0" height="30" fill="#ef4444" rx="5"/>
        <text x="140" y="1200" text-anchor="end" class="row">gp_config</text>
        <text x="660" y="1200" text-anchor="start" class="score">15.0% (S:0%)</text><rect x="150" y="1230" width="500" height="30" fill="#eee" rx="5"/><rect x="150" y="1230" width="456.45000000000005" height="30" fill="#22c55e" rx="5"/>
        <text x="140" y="1250" text-anchor="end" class="row">lrnbymaa</text>
        <text x="660" y="1250" text-anchor="start" class="score">91.3% (S:100%)</text><rect x="150" y="1280" width="500" height="30" fill="#eee" rx="5"/><rect x="150" y="1280" width="75.0" height="30" fill="#ef4444" rx="5"/>
        <text x="140" y="1300" text-anchor="end" class="row">mrsoulb</text>
        <text x="660" y="1300" text-anchor="start" class="score">15.0% (S:0%)</text><rect x="150" y="1330" width="500" height="30" fill="#eee" rx="5"/><rect x="150" y="1330" width="75.0" height="30" fill="#ef4444" rx="5"/>
        <text x="140" y="1350" text-anchor="end" class="row">proxy_confiig</text>
        <text x="660" y="1350" text-anchor="start" class="score">15.0% (S:0%)</text><rect x="150" y="1380" width="500" height="30" fill="#eee" rx="5"/><rect x="150" y="1380" width="75.0" height="30" fill="#ef4444" rx="5"/>
        <text x="140" y="1400" text-anchor="end" class="row">proxyiranip</text>
        <text x="660" y="1400" text-anchor="start" class="score">15.0% (S:0%)</text><rect x="150" y="1430" width="500" height="30" fill="#eee" rx="5"/><rect x="150" y="1430" width="460.55" height="30" fill="#22c55e" rx="5"/>
        <text x="140" y="1450" text-anchor="end" class="row">club_profsor</text>
        <text x="660" y="1450" text-anchor="start" class="score">92.1% (S:100%)</text><rect x="150" y="1480" width="500" height="30" fill="#eee" rx="5"/><rect x="150" y="1480" width="450.75" height="30" fill="#22c55e" rx="5"/>
        <text x="140" y="1500" text-anchor="end" class="row">shadowproxy66</text>
        <text x="660" y="1500" text-anchor="start" class="score">90.2% (S:100%)</text><rect x="150" y="1530" width="500" height="30" fill="#eee" rx="5"/><rect x="150" y="1530" width="75.0" height="30" fill="#ef4444" rx="5"/>
        <text x="140" y="1550" text-anchor="end" class="row">soskeynet</text>
        <text x="660" y="1550" text-anchor="start" class="score">15.0% (S:0%)</text><rect x="150" y="1580" width="500" height="30" fill="#eee" rx="5"/><rect x="150" y="1580" width="75.0" height="30" fill="#ef4444" rx="5"/>
        <text x="140" y="1600" text-anchor="end" class="row">speeds_vpn1</text>
        <text x="660" y="1600" text-anchor="start" class="score">15.0% (S:0%)</text><rect x="150" y="1630" width="500" height="30" fill="#eee" rx="5"/><rect x="150" y="1630" width="449.0" height="30" fill="#22c55e" rx="5"/>
        <text x="140" y="1650" text-anchor="end" class="row">vless_config</text>
        <text x="660" y="1650" text-anchor="start" class="score">89.8% (S:100%)</text><rect x="150" y="1680" width="500" height="30" fill="#eee" rx="5"/><rect x="150" y="1680" width="75.0" height="30" fill="#ef4444" rx="5"/>
        <text x="140" y="1700" text-anchor="end" class="row">vpn_solve</text>
        <text x="660" y="1700" text-anchor="start" class="score">15.0% (S:0%)</text><rect x="150" y="1730" width="500" height="30" fill="#eee" rx="5"/><rect x="150" y="1730" width="75.0" height="30" fill="#ef4444" rx="5"/>
        <text x="140" y="1750" text-anchor="end" class="row">vpnbaz</text>
        <text x="660" y="1750" text-anchor="start" class="score">15.0% (S:0%)</text></svg>