<?xml version="1.0" encoding="UTF-8"?>
    <svg width="800" height="3000" version="1.1" xmlns="http://www.w3.org/2000/svg">
    <style>
        .row { font: 14px Arial; fill: #64748b; }
        .score { font: bold 14px Arial; fill: #64748b; }
    </style>
    <text x="400" y="40" text-anchor="middle" font-size="20px" font-weight="bold" fill="#64748b">Channel Performance Overview</text><rect x="150" y="80" width="500" height="30" fill="#eee" rx="5"/><rect x="150" y="80" width="375.3" height="30" fill="#22c55e" rx="5"/>
        <text x="140" y="100" text-anchor="end" class="row">proxy.txt</text>
        <text x="660" y="100" text-anchor="start" class="score">75.1% (S:100%)</text><rect x="150" y="130" width="500" height="30" fill="#eee" rx="5"/><rect x="150" y="130" width="374.6" height="30" fill="#22c55e" rx="5"/>
        <text x="140" y="150" text-anchor="end" class="row">mix</text>
        <text x="660" y="150" text-anchor="start" class="score">74.9% (S:100%)</text><rect x="150" y="180" width="500" height="30" fill="#eee" rx="5"/><rect x="150" y="180" width="374.35" height="30" fill="#22c55e" rx="5"/>
        <text x="140" y="200" text-anchor="end" class="row">Eternity.txt</text>
        <text x="660" y="200" text-anchor="start" class="score">74.9% (S:100%)</text><rect x="150" y="230" width="500" height="30" fill="#eee" rx="5"/><rect x="150" y="230" width="375.65" height="30" fill="#22c55e" rx="5"/>
        <text x="140" y="250" text-anchor="end" class="row">dev1.irdevs.sbs</text>
        <text x="660" y="250" text-anchor="start" class="score">75.1% (S:100%)</text><rect x="150" y="280" width="500" height="30" fill="#eee" rx="5"/><rect x="150" y="280" width="375.90000000000003" height="30" fill="#22c55e" rx="5"/>
        <text x="140" y="300" text-anchor="end" class="row">V2mix</text>
        <text x="660" y="300" text-anchor="start" class="score">75.2% (S:100%)</text><rect x="150" y="330" width="500" height="30" fill="#eee" rx="5"/><rect x="150" y="330" width="375.20000000000005" height="30" fill="#22c55e" rx="5"/>
        <text x="140" y="350" text-anchor="end" class="row">sub.html</text>
        <text x="660" y="350" text-anchor="start" class="score">75.0% (S:100%)</text><rect x="150" y="380" width="500" height="30" fill="#eee" rx="5"/><rect x="150" y="380" width="374.85" height="30" fill="#22c55e" rx="5"/>
        <text x="140" y="400" text-anchor="end" class="row">V2RAY_RAW.txt</text>
        <text x="660" y="400" text-anchor="start" class="score">75.0% (S:100%)</text><rect x="150" y="430" width="500" height="30" fill="#eee" rx="5"/><rect x="150" y="430" width="75.0" height="30" fill="#ef4444" rx="5"/>
        <text x="140" y="450" text-anchor="end" class="row">v2ray_Extractor</text>
        <text x="660" y="450" text-anchor="start" class="score">15.0% (S:0%)</text><rect x="150" y="480" width="500" height="30" fill="#eee" rx="5"/><rect x="150" y="480" width="75.0" height="30" fill="#ef4444" rx="5"/>
        <text x="140" y="500" text-anchor="end" class="row">BINNER_IRAN</text>
        <text x="660" y="500" text-anchor="start" class="score">15.0% (S:0%)</text><rect x="150" y="530" width="500" height="30" fill="#eee" rx="5"/><rect x="150" y="530" width="75.0" height="30" fill="#ef4444" rx="5"/>
        <text x="140" y="550" text-anchor="end" class="row">DeamNet</text>
        <text x="660" y="550" text-anchor="start" class="score">15.0% (S:0%)</text><rect x="150" y="580" width="500" height="30" fill="#eee" rx="5"/><rect x="150" y="580" width="435.3" height="30" fill="#22c55e" rx="5"/>
        <text x="140" y="600" text-anchor="end" class="row">AzadNet</text>
        <text x="660" y="600" text-anchor="start" class="score">87.1% (S:100%)</text><rect x="150" y="630" width="500" height="30" fill="#eee" rx="5"/><rect x="150" y="630" width="75.0" height="30" fill="#ef4444" rx="5"/>
        <text x="140" y="650" text-anchor="end" class="row">freeconfigsplus</text>
        <text x="660" y="650" text-anchor="start" class="score">15.0% (S:0%)</text><rect x="150" y="680" width="500" height="30" fill="#eee" rx="5"/><rect x="150" y="680" width="75.0" height="30" fill="#ef4444" rx="5"/>
        <text x="140" y="700" text-anchor="end" class="row">configshubplus</text>
        <text x="660" y="700" text-anchor="start" class="score">15.0% (S:0%)</text><rect x="150" y="730" width="500" height="30" fill="#eee" rx="5"/><rect x="150" y="730" width="75.0" height="30" fill="#ef4444" rx="5"/>
        <text x="140" y="750" text-anchor="end" class="row">ConfigWireguard</text>
        <text x="660" y="750" text-anchor="start" class="score">15.0% (S:0%)</text><rect x="150" y="780" width="500" height="30" fill="#eee" rx="5"/><rect x="150" y="780" width="498.8" height="30" fill="#22c55e" rx="5"/>
        <text x="140" y="800" text-anchor="end" class="row">WireVpnGuard</text>
        <text x="660" y="800" text-anchor="start" class="score">99.8% (S:100%)</text><rect x="150" y="830" width="500" height="30" fill="#eee" rx="5"/><rect x="150" y="830" width="75.0" height="30" fill="#ef4444" rx="5"/>
        <text x="140" y="850" text-anchor="end" class="row">Config_Vortex55</text>
        <text x="660" y="850" text-anchor="start" class="score">15.0% (S:0%)</text><rect x="150" y="880" width="500" height="30" fill="#eee" rx="5"/><rect x="150" y="880" width="75.0" height="30" fill="#ef4444" rx="5"/>
        <text x="140" y="900" text-anchor="end" class="row">APPXA</text>
        <text x="660" y="900" text-anchor="start" class="score">15.0% (S:0%)</text><rect x="150" y="930" width="500" height="30" fill="#eee" rx="5"/><rect x="150" y="930" width="456.04999999999995" height="30" fill="#22c55e" rx="5"/>
        <text x="140" y="950" text-anchor="end" class="row">arshia_mod_fun</text>
        <text x="660" y="950" text-anchor="start" class="score">91.2% (S:100%)</text><rect x="150" y="980" width="500" height="30" fill="#eee" rx="5"/><rect x="150" y="980" width="75.0" height="30" fill="#ef4444" rx="5"/>
        <text x="140" y="1000" text-anchor="end" class="row">lightning6</text>
        <text x="660" y="1000" text-anchor="start" class="score">15.0% (S:0%)</text><rect x="150" y="1030" width="500" height="30" fill="#eee" rx="5"/><rect x="150" y="1030" width="75.0" height="30" fill="#ef4444" rx="5"/>
        <text x="140" y="1050" text-anchor="end" class="row">spotify_porteghali</text>
        <text x="660" y="1050" text-anchor="start" class="score">15.0% (S:0%)</text><rect x="150" y="1080" width="500" height="30" fill="#eee" rx="5"/><rect x="150" y="1080" width="75.0" height="30" fill="#ef4444" rx="5"/>
        <text x="140" y="1100" text-anchor="end" class="row">kvetch_matin</text>
        <text x="660" y="1100" text-anchor="start" class="score">15.0% (S:0%)</text><rect x="150" y="1130" width="500" height="30" fill="#eee" rx="5"/><rect x="150" y="1130" width="75.0" height="30" fill="#ef4444" rx="5"/>
        <text x="140" y="1150" text-anchor="end" class="row">hacknashid</text>
        <text x="660" y="1150" text-anchor="start" class="score">15.0% (S:0%)</text><rect x="150" y="1180" width="500" height="30" fill="#eee" rx="5"/><rect x="150" y="1180" width="75.0" height="30" fill="#ef4444" rx="5"/>
        <text x="140" y="1200" text-anchor="end" class="row">lnrbymaa</text>
        <text x="660" y="1200" text-anchor="start" class="score">15.0% (S:0%)</text><rect x="150" y="1230" width="500" height="30" fill="#eee" rx="5"/><rect x="150" y="1230" width="75.0" height="30" fill="#ef4444" rx="5"/>
        <text x="140" y="1250" text-anchor="end" class="row">lyricpixelart</text>
        <text x="660" y="1250" text-anchor="start" class="score">15.0% (S:0%)</text><rect x="150" y="1280" width="500" height="30" fill="#eee" rx="5"/><rect x="150" y="1280" width="75.0" height="30" fill="#ef4444" rx="5"/>
        <text x="140" y="1300" text-anchor="end" class="row">madshopx</text>
        <text x="660" y="1300" text-anchor="start" class="score">15.0% (S:0%)</text><rect x="150" y="1330" width="500" height="30" fill="#eee" rx="5"/><rect x="150" y="1330" width="75.0" height="30" fill="#ef4444" rx="5"/>
        <text x="140" y="1350" text-anchor="end" class="row">movie10_oficial</text>
        <text x="660" y="1350" text-anchor="start" class="score">15.0% (S:0%)</text><rect x="150" y="1380" width="500" height="30" fill="#eee" rx="5"/><rect x="150" y="1380" width="75.0" height="30" fill="#ef4444" rx="5"/>
        <text x="140" y="1400" text-anchor="end" class="row">mbtiuniverse</text>
        <text x="660" y="1400" text-anchor="start" class="score">15.0% (S:0%)</text><rect x="150" y="1430" width="500" height="30" fill="#eee" rx="5"/><rect x="150" y="1430" width="75.0" height="30" fill="#ef4444" rx="5"/>
        <text x="140" y="1450" text-anchor="end" class="row">mitivpn</text>
        <text x="660" y="1450" text-anchor="start" class="score">15.0% (S:0%)</text><rect x="150" y="1480" width="500" height="30" fill="#eee" rx="5"/><rect x="150" y="1480" width="441.45000000000005" height="30" fill="#22c55e" rx="5"/>
        <text x="140" y="1500" text-anchor="end" class="row">mrsoulb</text>
        <text x="660" y="1500" text-anchor="start" class="score">88.3% (S:100%)</text><rect x="150" y="1530" width="500" height="30" fill="#eee" rx="5"/><rect x="150" y="1530" width="75.0" height="30" fill="#ef4444" rx="5"/>
        <text x="140" y="1550" text-anchor="end" class="row">prooofsor</text>
        <text x="660" y="1550" text-anchor="start" class="score">15.0% (S:0%)</text><rect x="150" y="1580" width="500" height="30" fill="#eee" rx="5"/><rect x="150" y="1580" width="75.0" height="30" fill="#ef4444" rx="5"/>
        <text x="140" y="1600" text-anchor="end" class="row">soskeynet</text>
        <text x="660" y="1600" text-anchor="start" class="score">15.0% (S:0%)</text><rect x="150" y="1630" width="500" height="30" fill="#eee" rx="5"/><rect x="150" y="1630" width="75.0" height="30" fill="#ef4444" rx="5"/>
        <text x="140" y="1650" text-anchor="end" class="row">speeds_vpn1</text>
        <text x="660" y="1650" text-anchor="start" class="score">15.0% (S:0%)</text><rect x="150" y="1680" width="500" height="30" fill="#eee" rx="5"/><rect x="150" y="1680" width="75.0" height="30" fill="#ef4444" rx="5"/>
        <text x="140" y="1700" text-anchor="end" class="row">surfboardv2ray</text>
        <text x="660" y="1700" text-anchor="start" class="score">15.0% (S:0%)</text><rect x="150" y="1730" width="500" height="30" fill="#eee" rx="5"/><rect x="150" y="1730" width="460.0" height="30" fill="#22c55e" rx="5"/>
        <text x="140" y="1750" text-anchor="end" class="row">v2ray1_ng</text>
        <text x="660" y="1750" text-anchor="start" class="score">92.0% (S:100%)</text><rect x="150" y="1780" width="500" height="30" fill="#eee" rx="5"/><rect x="150" y="1780" width="75.0" height="30" fill="#ef4444" rx="5"/>
        <text x="140" y="1800" text-anchor="end" class="row">v2ray_vpn_ir</text>
        <text x="660" y="1800" text-anchor="start" class="score">15.0% (S:0%)</text><rect x="150" y="1830" width="500" height="30" fill="#eee" rx="5"/><rect x="150" y="1830" width="497.84999999999997" height="30" fill="#22c55e" rx="5"/>
        <text x="140" y="1850" text-anchor="end" class="row">vless_config</text>
        <text x="660" y="1850" text-anchor="start" class="score">99.6% (S:100%)</text><rect x="150" y="1880" width="500" height="30" fill="#eee" rx="5"/><rect x="150" y="1880" width="75.0" height="30" fill="#ef4444" rx="5"/>
        <text x="140" y="1900" text-anchor="end" class="row">vlessconfight</text>
        <text x="660" y="1900" text-anchor="start" class="score">15.0% (S:0%)</text><rect x="150" y="1930" width="500" height="30" fill="#eee" rx="5"/><rect x="150" y="1930" width="75.0" height="30" fill="#ef4444" rx="5"/>
        <text x="140" y="1950" text-anchor="end" class="row">vpn4everyone</text>
        <text x="660" y="1950" text-anchor="start" class="score">15.0% (S:0%)</text><rect x="150" y="1980" width="500" height="30" fill="#eee" rx="5"/><rect x="150" y="1980" width="75.0" height="30" fill="#ef4444" rx="5"/>
        <text x="140" y="2000" text-anchor="end" class="row">vpnbaz</text>
        <text x="660" y="2000" text-anchor="start" class="score">15.0% (S:0%)</text><rect x="150" y="2030" width="500" height="30" fill="#eee" rx="5"/><rect x="150" y="2030" width="497.8" height="30" fill="#22c55e" rx="5"/>
        <text x="140" y="2050" text-anchor="end" class="row">vpnserverrr</text>
        <text x="660" y="2050" text-anchor="start" class="score">99.6% (S:100%)</text><rect x="150" y="2080" width="500" height="30" fill="#eee" rx="5"/><rect x="150" y="2080" width="75.0" height="30" fill="#ef4444" rx="5"/>
        <text x="140" y="2100" text-anchor="end" class="row">vpn_solve</text>
        <text x="660" y="2100" text-anchor="start" class="score">15.0% (S:0%)</text><rect x="150" y="2130" width="500" height="30" fill="#eee" rx="5"/><rect x="150" y="2130" width="75.0" height="30" fill="#ef4444" rx="5"/>
        <text x="140" y="2150" text-anchor="end" class="row">xixv2ray</text>
        <text x="660" y="2150" text-anchor="start" class="score">15.0% (S:0%)</text><rect x="150" y="2180" width="500" height="30" fill="#eee" rx="5"/><rect x="150" y="2180" width="75.0" height="30" fill="#ef4444" rx="5"/>
        <text x="140" y="2200" text-anchor="end" class="row">ahwazigamingshop</text>
        <text x="660" y="2200" text-anchor="start" class="score">15.0% (S:0%)</text><rect x="150" y="2230" width="500" height="30" fill="#eee" rx="5"/><rect x="150" y="2230" width="75.0" height="30" fill="#ef4444" rx="5"/>
        <text x="140" y="2250" text-anchor="end" class="row">ar14n24b</text>
        <text x="660" y="2250" text-anchor="start" class="score">15.0% (S:0%)</text><rect x="150" y="2280" width="500" height="30" fill="#eee" rx="5"/><rect x="150" y="2280" width="498.7" height="30" fill="#22c55e" rx="5"/>
        <text x="140" y="2300" text-anchor="end" class="row">betv2ray</text>
        <text x="660" y="2300" text-anchor="start" class="score">99.7% (S:100%)</text><rect x="150" y="2330" width="500" height="30" fill="#eee" rx="5"/><rect x="150" y="2330" width="75.0" height="30" fill="#ef4444" rx="5"/>
        <text x="140" y="2350" text-anchor="end" class="row">bugfreenet</text>
        <text x="660" y="2350" text-anchor="start" class="score">15.0% (S:0%)</text><rect x="150" y="2380" width="500" height="30" fill="#eee" rx="5"/><rect x="150" y="2380" width="498.7" height="30" fill="#22c55e" rx="5"/>
        <text x="140" y="2400" text-anchor="end" class="row">capoit</text>
        <text x="660" y="2400" text-anchor="start" class="score">99.7% (S:100%)</text><rect x="150" y="2430" width="500" height="30" fill="#eee" rx="5"/><rect x="150" y="2430" width="75.0" height="30" fill="#ef4444" rx="5"/>
        <text x="140" y="2450" text-anchor="end" class="row">canfing_vpn</text>
        <text x="660" y="2450" text-anchor="start" class="score">15.0% (S:0%)</text><rect x="150" y="2480" width="500" height="30" fill="#eee" rx="5"/><rect x="150" y="2480" width="75.0" height="30" fill="#ef4444" rx="5"/>
        <text x="140" y="2500" text-anchor="end" class="row">configfa</text>
        <text x="660" y="2500" text-anchor="start" class="score">15.0% (S:0%)</text><rect x="150" y="2530" width="500" height="30" fill="#eee" rx="5"/><rect x="150" y="2530" width="408.2" height="30" fill="#22c55e" rx="5"/>
        <text x="140" y="2550" text-anchor="end" class="row">configx2ray</text>
        <text x="660" y="2550" text-anchor="start" class="score">81.6% (S:100%)</text><rect x="150" y="2580" width="500" height="30" fill="#eee" rx="5"/><rect x="150" y="2580" width="75.0" height="30" fill="#ef4444" rx="5"/>
        <text x="140" y="2600" text-anchor="end" class="row">crypto_trad26</text>
        <text x="660" y="2600" text-anchor="start" class="score">15.0% (S:0%)</text><rect x="150" y="2630" width="500" height="30" fill="#eee" rx="5"/><rect x="150" y="2630" width="75.0" height="30" fill="#ef4444" rx="5"/>
        <text x="140" y="2650" text-anchor="end" class="row">express_freevpn</text>
        <text x="660" y="2650" text-anchor="start" class="score">15.0% (S:0%)</text><rect x="150" y="2680" width="500" height="30" fill="#eee" rx="5"/><rect x="150" y="2680" width="75.0" height="30" fill="#ef4444" rx="5"/>
        <text x="140" y="2700" text-anchor="end" class="row">gp_config</text>
        <text x="660" y="2700" text-anchor="start" class="score">15.0% (S:0%)</text><rect x="150" y="2730" width="500" height="30" fill="#eee" rx="5"/><rect x="150" y="2730" width="75.0" height="30" fill="#ef4444" rx="5"/>
        <text x="140" y="2750" text-anchor="end" class="row">lrnbymaa</text>
        <text x="660" y="2750" text-anchor="start" class="score">15.0% (S:0%)</text><rect x="150" y="2780" width="500" height="30" fill="#eee" rx="5"/><rect x="150" y="2780" width="75.0" height="30" fill="#ef4444" rx="5"/>
        <text x="140" y="2800" text-anchor="end" class="row">proxy_confiig</text>
        <text x="660" y="2800" text-anchor="start" class="score">15.0% (S:0%)</text><rect x="150" y="2830" width="500" height="30" fill="#eee" rx="5"/><rect x="150" y="2830" width="75.0" height="30" fill="#ef4444" rx="5"/>
        <text x="140" y="2850" text-anchor="end" class="row">proxyiranip</text>
        <text x="660" y="2850" text-anchor="start" class="score">15.0% (S:0%)</text><rect x="150" y="2880" width="500" height="30" fill="#eee" rx="5"/><rect x="150" y="2880" width="75.0" height="30" fill="#ef4444" rx="5"/>
        <text x="140" y="2900" text-anchor="end" class="row">club_profsor</text>
        <text x="660" y="2900" text-anchor="start" class="score">15.0% (S:0%)</text><rect x="150" y="2930" width="500" height="30" fill="#eee" rx="5"/><rect x="150" y="2930" width="476.65" height="30" fill="#22c55e" rx="5"/>
        <text x="140" y="2950" text-anchor="end" class="row">shadowproxy66</text>
        <text x="660" y="2950" text-anchor="start" class="score">95.3% (S:100%)</text></svg>